<svg xmlns="http://www.w3.org/2000/svg" width="1600" height="980" viewBox="0 0 1600 980" role="img" aria-labelledby="title desc">
  <title id="title">Math-To-Manim reverse reasoning pipeline</title>
  <desc id="desc">A diagram of AnimationPipeline.generate showing the ordered stage agents, emitted artifacts, validation gate, render path, review, and final package.</desc>
  <defs>
    <style>
      .bg { fill: #f8fafc; }
      .title { fill: #101828; font: 700 42px Arial, sans-serif; }
      .subtitle { fill: #475467; font: 400 22px Arial, sans-serif; }
      .lane-title { fill: #344054; font: 700 18px Arial, sans-serif; letter-spacing: .08em; }
      .box { fill: #ffffff; stroke: #cbd5e1; stroke-width: 2; rx: 14; }
      .box-planning { stroke: #2563eb; }
      .box-code { stroke: #d97706; }
      .box-render { stroke: #059669; }
      .agent { fill: #111827; font: 700 17px Arial, sans-serif; }
      .artifact { fill: #475467; font: 400 15px Arial, sans-serif; }
      .small { fill: #667085; font: 400 14px Arial, sans-serif; }
      .gate { fill: #fff7ed; stroke: #f97316; stroke-width: 2; }
      .skip { fill: #f1f5f9; stroke: #94a3b8; stroke-width: 2; rx: 14; }
      .arrow { stroke: #64748b; stroke-width: 3; fill: none; marker-end: url(#arrow); }
      .arrow-soft { stroke: #94a3b8; stroke-width: 2.5; fill: none; marker-end: url(#arrow-soft); }
      .band { fill: #eff6ff; stroke: #bfdbfe; stroke-width: 1.5; rx: 18; }
      .band-code { fill: #fff7ed; stroke: #fed7aa; }
      .band-render { fill: #ecfdf5; stroke: #bbf7d0; }
      .note { fill: #ffffff; stroke: #e2e8f0; stroke-width: 1.5; rx: 14; }
      .code { fill: #334155; font: 600 15px "Courier New", monospace; }
    </style>
    <marker id="arrow" markerWidth="12" markerHeight="12" refX="10" refY="6" orient="auto" markerUnits="strokeWidth">
      <path d="M2,2 L10,6 L2,10 Z" fill="#64748b" />
    </marker>
    <marker id="arrow-soft" markerWidth="12" markerHeight="12" refX="10" refY="6" orient="auto" markerUnits="strokeWidth">
      <path d="M2,2 L10,6 L2,10 Z" fill="#94a3b8" />
    </marker>
  </defs>

  <rect class="bg" width="1600" height="980" />

  <text class="title" x="70" y="74">Reverse reasoning pipeline</text>
  <text class="subtitle" x="70" y="112">Actual ordered path in math_to_manim/pipeline/runner.py: story first, typed artifacts next, Manim only after validation.</text>

  <rect class="band" x="52" y="150" width="1496" height="306" />
  <text class="lane-title" x="80" y="184">PLANNING ARTIFACTS</text>

  <rect class="box box-planning" x="80" y="220" width="176" height="104" />
  <text class="agent" x="104" y="258">UserRequest</text>
  <text class="artifact" x="104" y="286">request.json</text>

  <rect class="box box-planning" x="305" y="220" width="176" height="104" />
  <text class="agent" x="329" y="258">IntentAgent</text>
  <text class="artifact" x="329" y="286">intent.json</text>

  <rect class="box box-planning" x="530" y="220" width="206" height="104" />
  <text class="agent" x="554" y="258">PrerequisiteGraph</text>
  <text class="agent" x="554" y="281">Agent</text>
  <text class="artifact" x="554" y="307">knowledge_graph.json</text>

  <rect class="box box-planning" x="785" y="220" width="176" height="104" />
  <text class="agent" x="809" y="258">CurriculumAgent</text>
  <text class="artifact" x="809" y="286">curriculum.json</text>

  <rect class="box box-planning" x="1010" y="220" width="176" height="104" />
  <text class="agent" x="1034" y="258">MathAgent</text>
  <text class="artifact" x="1034" y="286">math_packet.json</text>

  <rect class="box box-planning" x="1235" y="220" width="176" height="104" />
  <text class="agent" x="1259" y="258">StoryboardAgent</text>
  <text class="artifact" x="1259" y="286">storyboard.json</text>

  <rect class="box box-planning" x="655" y="352" width="250" height="80" />
  <text class="agent" x="679" y="384">SceneSpecAgent</text>
  <text class="artifact" x="679" y="410">scene_spec.json</text>

  <path class="arrow" d="M256 272 H305" />
  <path class="arrow" d="M481 272 H530" />
  <path class="arrow" d="M736 272 H785" />
  <path class="arrow" d="M961 272 H1010" />
  <path class="arrow" d="M1186 272 H1235" />
  <path class="arrow" d="M1323 324 V392 H905" />

  <rect class="band band-code" x="52" y="488" width="1496" height="206" />
  <text class="lane-title" x="80" y="522">CODE GENERATION AND STATIC GATE</text>

  <rect class="box box-code" x="170" y="570" width="220" height="94" />
  <text class="agent" x="194" y="607">ManimCodeAgent</text>
  <text class="artifact" x="194" y="633">generated_code.json</text>
  <text class="artifact" x="194" y="654">generated_scene.py</text>

  <rect class="box box-code" x="480" y="570" width="220" height="94" />
  <text class="agent" x="504" y="607">StaticReviewAgent</text>
  <text class="artifact" x="504" y="633">validation_report.json</text>

  <polygon class="gate" points="870,556 960,617 870,678 780,617" />
  <text class="agent" x="832" y="606">validation</text>
  <text class="agent" x="834" y="628">successful?</text>

  <rect class="skip" x="1060" y="570" width="260" height="94" />
  <text class="agent" x="1084" y="607">Render skipped</text>
  <text class="artifact" x="1084" y="633">RenderResult</text>
  <text class="small" x="1084" y="654">metadata.skipped = true</text>

  <path class="arrow" d="M780 392 V532 H280 V570" />
  <path class="arrow" d="M390 617 H480" />
  <path class="arrow" d="M700 617 H780" />
  <path class="arrow" d="M960 617 H1060" />
  <text class="small" x="990" y="596">no</text>

  <rect class="band band-render" x="52" y="726" width="1496" height="176" />
  <text class="lane-title" x="80" y="760">RENDER, REVIEW, PACKAGE</text>

  <rect class="box box-render" x="210" y="802" width="205" height="78" />
  <text class="agent" x="234" y="834">RenderAgent</text>
  <text class="artifact" x="234" y="858">render_result.json</text>

  <rect class="box box-render" x="535" y="802" width="220" height="78" />
  <text class="agent" x="559" y="834">VideoReviewAgent</text>
  <text class="artifact" x="559" y="858">review_report.json</text>

  <rect class="box box-render" x="875" y="802" width="220" height="78" />
  <text class="agent" x="899" y="834">PublisherAgent</text>
  <text class="artifact" x="899" y="858">animation_package.json</text>

  <rect class="box box-render" x="1215" y="802" width="205" height="78" />
  <text class="agent" x="1239" y="834">Manifest</text>
  <text class="artifact" x="1239" y="858">manifest.json</text>

  <path class="arrow" d="M870 678 V704 H312 V802" />
  <text class="small" x="810" y="704">yes</text>
  <path class="arrow" d="M415 841 H535" />
  <path class="arrow" d="M755 841 H875" />
  <path class="arrow" d="M1095 841 H1215" />

  <rect class="note" x="1048" y="362" width="360" height="86" />
  <text class="code" x="1072" y="394">deterministic mode</text>
  <text class="small" x="1072" y="420">Offline scaffolded artifacts keep CLI</text>
  <text class="small" x="1072" y="442">smoke tests reproducible.</text>

  <rect class="note" x="1092" y="704" width="360" height="78" />
  <text class="code" x="1116" y="736">artifact contract</text>
  <text class="small" x="1116" y="762">The run directory mirrors control flow.</text>
</svg>
